<svg xmlns="http://www.w3.org/2000/svg" viewBox="0 0 52.38 30.31">
  <title>border</title>
  <g>
    <path d="M28.81,4c0,1.47-2.71,6.76-2.71,6.76S23.38,5.52,23.38,4,26.1,0,26.1,0,28.81,2.57,28.81,4Zm-1.47-.23c0-.68-1.24-2-1.24-2s-1.24,1.37-1.24,2A10.39,10.39,0,0,0,26.1,6.53,10.39,10.39,0,0,0,27.34,3.82Z" style="fill: #f9d2a5"/>
    <path d="M26.1,30.31S22.64,27,22.64,25.16s3.46-8.6,3.46-8.6,3.45,6.73,3.45,8.6S26.1,30.31,26.1,30.31Zm0-8.32s-1.58,2.6-1.58,3.46,1.58,2.61,1.58,2.61,1.58-1.75,1.58-2.61S26.1,22,26.1,22Z" style="fill: #f9d2a5"/>
    <path d="M24.79,14.61a10.54,10.54,0,0,1-3.78,5c-3.88,2.93-7.64,4.18-12.49,3.56a10.2,10.2,0,0,1-6.34-3.39c-1.71-1.69-3.35-5.73-1.06-8A4.71,4.71,0,0,1,6.4,10.37c1.74.79,2.48,3.65.83,4.61-.47.27-.05-3.14-3.06-2.62a2.71,2.71,0,0,0-1.83,2.12c-.25,2.5,2.84,5,5.4,4.94a7,7,0,0,0,5.85-4,45,45,0,0,0,1.35-4.93,5.06,5.06,0,0,1,3.84-3.15,5.61,5.61,0,0,1,5.4,2.28A5.46,5.46,0,0,1,24.79,14.61Zm-2-2.29a3,3,0,0,0-2.1-2.53,3.26,3.26,0,0,0-3.45,1.64,11.3,11.3,0,0,0-.95,3.2c-.52,2.22-1.84,4.52-4.08,5.09a5,5,0,0,0,3.63-.33,21.63,21.63,0,0,0,3.26-1.61,9.55,9.55,0,0,0,2.68-2.22A4.46,4.46,0,0,0,22.83,12.32Z" style="fill: #f9d2a5"/>
    <path d="M28.21,9.65a5.61,5.61,0,0,1,5.4-2.28,5.06,5.06,0,0,1,3.84,3.15,44.92,44.92,0,0,0,1.35,4.93,7,7,0,0,0,5.85,4c2.56.06,5.65-2.44,5.4-4.94a2.71,2.71,0,0,0-1.83-2.12c-3-.51-2.59,2.9-3.06,2.62-1.65-1-.91-3.82.83-4.61a4.71,4.71,0,0,1,5.27,1.36c2.29,2.32.65,6.35-1.06,8a10.2,10.2,0,0,1-6.34,3.39c-4.85.61-8.62-.63-12.49-3.56a10.54,10.54,0,0,1-3.78-5A5.46,5.46,0,0,1,28.21,9.65Zm2.35,5.9a9.56,9.56,0,0,0,2.68,2.22,21.63,21.63,0,0,0,3.26,1.61,5,5,0,0,0,3.63.33c-2.24-.57-3.57-2.87-4.08-5.09a11.31,11.31,0,0,0-.95-3.2,3.26,3.26,0,0,0-3.45-1.64,3,3,0,0,0-2.1,2.53A4.46,4.46,0,0,0,30.56,15.55Z" style="fill: #f9d2a5"/>
  </g>
</svg>
