<svg xmlns="http://www.w3.org/2000/svg" style="display: none; visibility: hidden;">
    <symbol id="star" viewBox="0 0 130 130">
        <title>star-ornament</title>
        <path d="M98,37.51,98.12,21l0-.46A19.22,19.22,0,0,0,66.17,7.46L51.38,22.64,32.66,16.2l-1-.3A19.22,19.22,0,0,0,8,37.51Z" style="fill: #fff"/>
        <path d="M120.72,68.38v0a13.7,13.7,0,0,1-8.54,11.69l-.62.22L89.18,87l-3.33,24.14a13.72,13.72,0,0,1-18.59,9.73A13.88,13.88,0,0,1,61.94,117l-.38-.49L48,97.25l-23.78,4.3a13.94,13.94,0,0,1-6.49-1,13.74,13.74,0,0,1-6.42-20l.34-.49L25.78,61.39,14.35,40A13.74,13.74,0,0,1,30.29,21.23l.58.17,22,7.58,16.93-17.4A13.72,13.72,0,0,1,92.6,20.94l0,.26-.21,24L114,55.53A13.65,13.65,0,0,1,120.72,68.38Z" style="fill: #f9d2a5"/>
        <path d="M72.83,93.63a8.26,8.26,0,0,1,1.36,2.78,7.19,7.19,0,0,1,.23,2.94,5.24,5.24,0,0,1-1,2.51,5.77,5.77,0,0,1-2,1.59,4.59,4.59,0,0,1-4.34-.37,4,4,0,0,1-1.54-1.55,2.77,2.77,0,0,1-.33-1.65,2.35,2.35,0,0,1,1.23-1.63c.44-.22,1.74-1,1.77-2.16a2,2,0,0,0-1.36-1.91,2.76,2.76,0,0,0-2.57.94,5.35,5.35,0,0,0-1.16,1.76,5.61,5.61,0,0,0-.43,2.56,7.16,7.16,0,0,0,6.3,6,5.66,5.66,0,0,0,3.09-.62,7,7,0,0,0,2.43-2.15,6.37,6.37,0,0,0,1.06-3.19A8.06,8.06,0,0,0,75,96.13a8.86,8.86,0,0,0-1.74-2.9,10.5,10.5,0,0,0-5.8-3.18A10.37,10.37,0,0,1,72.83,93.63Z" style="fill: #fff"/>
        <path d="M113.74,68.85a6.69,6.69,0,0,0-3.29-6.3l-25.08-12,.26-28.16a6.73,6.73,0,0,0-11.17-4.58L54.82,38,28.59,29a6.73,6.73,0,0,0-7.8,9.21L34.07,63,17.26,85.3a6.72,6.72,0,0,0,6.35,10.27l27.57-5L67.3,113.47A6.73,6.73,0,0,0,79,110.61l3.84-28,26.69-8A6.69,6.69,0,0,0,113.74,68.85ZM81.11,45.7a3.73,3.73,0,0,1-2,1.28,3.14,3.14,0,0,1-1.67-.14,4.59,4.59,0,0,1-1.11-.58c-.28-.19-1.79-1.27-2.82-.88a1.7,1.7,0,0,0-1,2.16c.2.88,1.28,2,3.15,2.53a6.19,6.19,0,0,0,6.79-2.2,7.82,7.82,0,0,0,.86-1.44l.24,3.49a2.75,2.75,0,0,0,1.35,2.18L92.2,56.4a5.74,5.74,0,0,0-2.39,1.29,5.94,5.94,0,0,0-1.58,2.66,8.31,8.31,0,0,0-.2,3.22,17.43,17.43,0,0,0,.59,2.8,14.6,14.6,0,0,0-6.71-4.22,14.4,14.4,0,0,0-3.85-.64,7,7,0,0,1-5.86-3.63q-.22-.38-.46-.75a4.75,4.75,0,0,0-.29-.41,11.29,11.29,0,0,0-.72-.88,21.57,21.57,0,0,1-2.91-4.22,12.9,12.9,0,0,1-1.39-5.25,12.59,12.59,0,0,1,.8-5.18A11.15,11.15,0,0,1,69.92,37a6.67,6.67,0,0,1,4.18-1.68,8.72,8.72,0,0,1,4.24.9A5.7,5.7,0,0,1,80,37.38a8.6,8.6,0,0,1,1.25,1.54,6.53,6.53,0,0,1,1.06,3.81A5.06,5.06,0,0,1,81.11,45.7Zm-4-24.91a2.75,2.75,0,0,1,4.57,1.87l1.1,15.74c-.07-.12-.12-.24-.19-.35a9.94,9.94,0,0,0-1.5-1.81,7.74,7.74,0,0,0-1-.79,7.46,7.46,0,0,0-1.1-.63,10.67,10.67,0,0,0-1.1-.44,5.38,5.38,0,0,0,1.9-.65,3.94,3.94,0,0,0,1.44-1.47,3.65,3.65,0,0,0,.36-2.37,2.46,2.46,0,0,0-.48-1,2.56,2.56,0,0,0-.81-.66,3.12,3.12,0,0,0-3.06,0,2.11,2.11,0,0,0-1.07,1.29.89.89,0,0,0,.57,1.06c1,.28,1.2-.67,1.67-1.05a1.13,1.13,0,0,1,.68-.28,1.68,1.68,0,0,1,1,.13,1.28,1.28,0,0,1,.71.94,2.44,2.44,0,0,1-.23,1.6,3.3,3.3,0,0,1-1.14,1.19,5,5,0,0,1-1.76.63,12.38,12.38,0,0,1-2.28.14c-.26,0-.51,0-.77,0a10.44,10.44,0,0,0-1.25.09,8.07,8.07,0,0,0-4.32,2.11,13.45,13.45,0,0,0-.93,1.05c-.25.39-.55.76-.77,1.17a14.36,14.36,0,0,0-1.14,2.54c-.13.37-.3,1-.3,1a18.29,18.29,0,0,0-.65-4.49,5.61,5.61,0,0,0-1-1.93,4,4,0,0,0-1.72-1.19,4.32,4.32,0,0,0-.51-.11Zm-23,18.69a2.75,2.75,0,0,0,2.49-.61l1.83-1.62a3,3,0,0,0,.71,1.66,2.15,2.15,0,0,0,1.48.85.91.91,0,0,0,1-.76c.11-1-1-1-1.35-1.49a2,2,0,0,1-.4-.64,1.72,1.72,0,0,1-.06-.82l1.36-1.2a2.63,2.63,0,0,1,1.13.09,3.37,3.37,0,0,1,1.39.94,5,5,0,0,1,.93,1.66,18.87,18.87,0,0,1,.79,4.3c0,.46.12,3.07.14,3.67a13.61,13.61,0,0,0,1.77,6.35,20.14,20.14,0,0,0,1.51,2.24,12.19,12.19,0,0,0-2.61-1.35,14.34,14.34,0,0,0-4.65-.89,14.64,14.64,0,0,0-8.15,2.28,12.94,12.94,0,0,0,2-2.94,12.05,12.05,0,0,0,1.08-3.42,10.48,10.48,0,0,0-.1-3.57A8.81,8.81,0,0,0,55,41a7.86,7.86,0,0,0-1.66-1.71ZM108.06,70.9,82.73,81.13a2.75,2.75,0,0,0-1.66,2l-5.93,26.66a2.75,2.75,0,0,1-4.8,1.17L54.5,92a26.43,26.43,0,0,1,8-2.07A20,20,0,0,1,65,89.81a12.32,12.32,0,0,1,2.51.24,12.65,12.65,0,0,0-2.49-.5,21,21,0,0,0-2.53-.13,27,27,0,0,0-5,.5c-1.12.22.35-1.88,2.28-2.73a19,19,0,0,1,4.31-1.38A12.7,12.7,0,0,1,68,85.68,5.63,5.63,0,0,1,71,87.05a9.24,9.24,0,0,1,1.48,1.77c.65,1,2.27,2.54,4,1.17s.4-3.29-.93-4.06a15,15,0,0,0-2.84-1.11,26.41,26.41,0,0,0-4.5-.94,12.73,12.73,0,0,0-4.45.35,18.24,18.24,0,0,0-4.55,1.88,21.08,21.08,0,0,0-5.38,4.45l-.26.38L52.79,90a2.73,2.73,0,0,0-1.33-.85A51.42,51.42,0,0,1,59.09,84c1.74-1,11.3-6.52,14-8.23a22.78,22.78,0,0,1,4.71-2.4A6.08,6.08,0,0,1,80.11,73a4.07,4.07,0,0,1,1.93.65,3,3,0,0,1,1.17,1.61A1.58,1.58,0,0,1,83,76.71a2.07,2.07,0,0,1-1,.7,2.37,2.37,0,0,1-.9.09c-.75,0-1.53-1-2.42-.2a1.09,1.09,0,0,0,0,1.48,2.6,2.6,0,0,0,1.9.8,3.84,3.84,0,0,0,3.36-1.71,3.15,3.15,0,0,0,.51-1.19,3,3,0,0,0-.07-1.4,4.49,4.49,0,0,0-1.75-2.38,4.85,4.85,0,0,0-2.4-.78,6.78,6.78,0,0,0-2.6.43,22.11,22.11,0,0,0-4.79,2.66c-2.25,1.55-2.94,1.5-1.47-.65a21.38,21.38,0,0,1-5.89,5.07C63.21,81,60.9,82,58.65,83.14c-.89.43-1.76.88-2.62,1.34a44.57,44.57,0,0,0,8.28-7,21,21,0,0,0,4.08-6.36l.17-.43.12-.44.24-.93a3.68,3.68,0,0,0,.09-.69,9.59,9.59,0,0,0,.08-1,9.82,9.82,0,0,0-.57-3.32,8.68,8.68,0,0,0-1.8-3A6.5,6.5,0,0,0,64,59.55a7.24,7.24,0,0,0-5,.29,4.38,4.38,0,0,0-2.3,1.9,1.71,1.71,0,0,0,.51,2.13c1.39.95,2.12-.73,2.75-1.25a4.92,4.92,0,0,1,3.07-1.27,3.85,3.85,0,0,1,2.33.73,5.49,5.49,0,0,1,1.89,2.61,8.72,8.72,0,0,1,0,6,20.87,20.87,0,0,1-3.66,6.18,48.38,48.38,0,0,1-10.4,9.18q-.76.46-1.48.95l-.32.2.11-.06-.65.45a10.26,10.26,0,0,1-5,1.83h0a19.57,19.57,0,0,1,1.52-5,17.19,17.19,0,0,1,2.14-3.5,11.51,11.51,0,0,1,2.57-2.38,5.1,5.1,0,0,1,2.91-.87,8.37,8.37,0,0,1,2.06.34c1,.26,3.06.39,3.43-1.57s-1.68-2.49-3-2.23a13.58,13.58,0,0,0-2.6.92,23.94,23.94,0,0,0-3.64,2,11.53,11.53,0,0,0-2.84,2.88,16,16,0,0,0-1.69,3.18,15.87,15.87,0,0,0,.15-4,11.24,11.24,0,0,0-1-3.8A23.33,23.33,0,0,0,43.74,72,13.22,13.22,0,0,0,42,70c-1-.87-3-1.37-3.65.44s1.18,2.71,2.16,3a8.15,8.15,0,0,1,1.91.7,5,5,0,0,1,2.06,2.13,11.19,11.19,0,0,1,1,3.24,16.72,16.72,0,0,1,.15,4,18.43,18.43,0,0,1-.74,3.86A23.11,23.11,0,0,0,43,82.15,16.77,16.77,0,0,0,37.92,76a15.84,15.84,0,0,1,4.23,6.5,20.55,20.55,0,0,1,1.26,7.11l-.06.06L23.23,91.61a2.75,2.75,0,0,1-2.6-4.2l4-6.47a5.06,5.06,0,0,0,.88,2,5,5,0,0,0,1.93,1.57,4.73,4.73,0,0,0,2.24.43,4,4,0,0,0,2.07-.72A4.08,4.08,0,0,0,33,82.75a2.57,2.57,0,0,0,0-2.59A1.69,1.69,0,0,0,30,81.44,1.29,1.29,0,0,1,30,82a1,1,0,0,1-.45.68A2.13,2.13,0,0,1,26.72,82,4.25,4.25,0,0,1,26,78.86l2.12-3.38.08-.09a7.45,7.45,0,0,1,4.93-1.18A10,10,0,0,1,37.92,76a10.06,10.06,0,0,0-4.73-2.35,9,9,0,0,0-2.68-.1,7.9,7.9,0,0,0-1.43.33l6-9.65a2.75,2.75,0,0,0,.19-2.56L24.44,36.63a2.75,2.75,0,0,1,3.19-3.77l19.71,4.92a6.38,6.38,0,0,0-1.17.33,6.63,6.63,0,0,0-2.71,1.94,6.33,6.33,0,0,0-1.35,2.74,5.29,5.29,0,0,0,.19,2.93,5.47,5.47,0,0,0,1.42,2.11,3.44,3.44,0,0,0,3.33,1,2.26,2.26,0,0,0-.56-4.44,1.73,1.73,0,0,1-.73-.19,1.4,1.4,0,0,1-.72-.82,2.85,2.85,0,0,1,1.85-3.42,5.75,5.75,0,0,1,4.69.29,6.85,6.85,0,0,1,3.49,4.34,10.12,10.12,0,0,1-.35,6.38,13,13,0,0,1-2.42,4,14.27,14.27,0,0,0-4.36,5.19,17.48,17.48,0,0,0-.18-2.87,8.35,8.35,0,0,0-1.06-3.07A6.7,6.7,0,0,0,44.46,52a5.94,5.94,0,0,0-1.76-.55,9.54,9.54,0,0,1-2.78-.72q-.41-.2-.8-.41A16,16,0,0,1,36,48.15a10.68,10.68,0,0,1-2-2.53,4.74,4.74,0,0,1-.62-2.76A7.78,7.78,0,0,1,33.81,41c.31-.92.56-2.81-1.23-3.28s-2.42,1.39-2.27,2.68A12.61,12.61,0,0,0,31,42.84a22.23,22.23,0,0,0,1.64,3.5,10.72,10.72,0,0,0,2.48,2.82,15.35,15.35,0,0,0,3.56,2.12c.45.2.91.37,1.38.53a3.37,3.37,0,0,0-.75.47,3.88,3.88,0,0,0-1,1.25,4.73,4.73,0,0,0,.12,4.64,3.2,3.2,0,0,0,2,1.59A1.35,1.35,0,0,0,42,58.87c.4-1.46-1.19-1.7-1.63-2.5a2.92,2.92,0,0,1-.44-1,2.55,2.55,0,0,1,.17-1.5,1.94,1.94,0,0,1,1.41-1.09,3.7,3.7,0,0,1,2.43.32,5,5,0,0,1,1.83,1.71,7.49,7.49,0,0,1,1,2.65c.35,1.9-.41,6.32.23,8.68a6,6,0,0,0,1.88,3.42A1.63,1.63,0,0,0,51,69.39c.91-1.23-.25-2.66-.7-3.54a6.36,6.36,0,0,1-.58-1.73,6.6,6.6,0,0,1,0-2.54A8.32,8.32,0,0,1,51,58.44a10.27,10.27,0,0,1,3.06-3,13.73,13.73,0,0,1,7.43-2.25,12,12,0,0,1,8.17,2.95,13.8,13.8,0,0,1,3.91,8.67,15.71,15.71,0,0,1-.25,5,13.29,13.29,0,0,1-2.06,4.68,13.33,13.33,0,0,0,2.33-4.61,15.94,15.94,0,0,0,.52-5.16h0A1.68,1.68,0,0,1,75.61,63a13.69,13.69,0,0,1,5.87.54,10.21,10.21,0,0,1,3.73,2,8.28,8.28,0,0,1,2,2.67,6.57,6.57,0,0,1,.69,2.43,6.32,6.32,0,0,1-.09,1.81c-.2,1-.92,2.65.27,3.58a1.62,1.62,0,0,0,2.12-.44A33.88,33.88,0,0,1,92.54,73a10.68,10.68,0,0,1,2.74-1.76,4.74,4.74,0,0,1,2.81-.32,7.79,7.79,0,0,1,1.83.65c.88.41,2.73.86,3.39-.88s-1.13-2.55-2.42-2.54a12.6,12.6,0,0,0-2.53.42,22.23,22.23,0,0,0-3.66,1.26A10.71,10.71,0,0,0,91.63,72c-.18.18-.35.37-.52.55,0-.23,0-.44,0-.68,0-2.43-1.93-6.47-2.09-8.38a7.45,7.45,0,0,1,.24-2.81,5,5,0,0,1,1.3-2.12,3.68,3.68,0,0,1,2.24-1,1.93,1.93,0,0,1,1.65.67A2.53,2.53,0,0,1,95,59.64a2.91,2.91,0,0,1-.14,1.1c-.21.89-1.67,1.54-.9,2.83a1.34,1.34,0,0,0,1.76.43A3.18,3.18,0,0,0,97.22,62a4.47,4.47,0,0,0-.05-2.62L108.43,66A2.75,2.75,0,0,1,108.06,70.9Z" style="fill: #fff"/>
        <path d="M72.83,92.64a8.26,8.26,0,0,1,1.36,2.78,7.19,7.19,0,0,1,.23,2.94,5.24,5.24,0,0,1-1,2.51,5.77,5.77,0,0,1-2,1.59,4.59,4.59,0,0,1-4.34-.37,4,4,0,0,1-1.54-1.55,2.77,2.77,0,0,1-.33-1.65,2.35,2.35,0,0,1,1.23-1.63c.44-.22,1.74-1,1.77-2.16a2,2,0,0,0-1.36-1.91,2.76,2.76,0,0,0-2.57.94,5.35,5.35,0,0,0-1.16,1.76,5.61,5.61,0,0,0-.43,2.56,7.16,7.16,0,0,0,6.3,6,5.66,5.66,0,0,0,3.09-.62,7,7,0,0,0,2.43-2.15,6.37,6.37,0,0,0,1.06-3.19A8.06,8.06,0,0,0,75,95.14a8.86,8.86,0,0,0-1.74-2.9,10.5,10.5,0,0,0-5.8-3.18A10.37,10.37,0,0,1,72.83,92.64Z" style="fill: #8ea984"/>
        <path d="M113.74,67.86a6.69,6.69,0,0,0-3.29-6.3l-25.08-12,.26-28.16a6.73,6.73,0,0,0-11.17-4.58L54.82,37,28.59,28a6.73,6.73,0,0,0-7.8,9.21L34.07,62,17.26,84.31a6.72,6.72,0,0,0,6.35,10.27l27.57-5L67.3,112.48A6.73,6.73,0,0,0,79,109.61l3.84-28,26.69-8A6.69,6.69,0,0,0,113.74,67.86ZM81.11,44.7a3.73,3.73,0,0,1-2,1.28,3.14,3.14,0,0,1-1.67-.14,4.59,4.59,0,0,1-1.11-.58c-.28-.19-1.79-1.27-2.82-.88a1.7,1.7,0,0,0-1,2.16c.2.88,1.28,2,3.15,2.53a6.19,6.19,0,0,0,6.79-2.2,7.82,7.82,0,0,0,.86-1.44l.24,3.49a2.75,2.75,0,0,0,1.35,2.18L92.2,55.4a5.74,5.74,0,0,0-2.39,1.29,5.94,5.94,0,0,0-1.58,2.66,8.31,8.31,0,0,0-.2,3.22,17.43,17.43,0,0,0,.59,2.8,14.6,14.6,0,0,0-6.71-4.22,14.4,14.4,0,0,0-3.85-.64,7,7,0,0,1-5.86-3.63q-.22-.38-.46-.75a4.75,4.75,0,0,0-.29-.41,11.29,11.29,0,0,0-.72-.88,21.57,21.57,0,0,1-2.91-4.22,12.9,12.9,0,0,1-1.39-5.25,12.59,12.59,0,0,1,.8-5.18A11.15,11.15,0,0,1,69.92,36a6.67,6.67,0,0,1,4.18-1.68,8.72,8.72,0,0,1,4.24.9A5.7,5.7,0,0,1,80,36.39a8.6,8.6,0,0,1,1.25,1.54,6.53,6.53,0,0,1,1.06,3.81A5.06,5.06,0,0,1,81.11,44.7Zm-4-24.91a2.75,2.75,0,0,1,4.57,1.87l1.1,15.74c-.07-.12-.12-.24-.19-.35a9.94,9.94,0,0,0-1.5-1.81,7.74,7.74,0,0,0-1-.79,7.46,7.46,0,0,0-1.1-.63,10.67,10.67,0,0,0-1.1-.44,5.38,5.38,0,0,0,1.9-.65,3.94,3.94,0,0,0,1.44-1.47,3.65,3.65,0,0,0,.36-2.37,2.46,2.46,0,0,0-.48-1,2.56,2.56,0,0,0-.81-.66,3.12,3.12,0,0,0-3.06,0,2.11,2.11,0,0,0-1.07,1.29.89.89,0,0,0,.57,1.06c1,.28,1.2-.67,1.67-1.05a1.13,1.13,0,0,1,.68-.28,1.68,1.68,0,0,1,1,.13,1.28,1.28,0,0,1,.71.94,2.44,2.44,0,0,1-.23,1.6,3.3,3.3,0,0,1-1.14,1.19,5,5,0,0,1-1.76.63,12.38,12.38,0,0,1-2.28.14c-.26,0-.51,0-.77,0a10.44,10.44,0,0,0-1.25.09,8.07,8.07,0,0,0-4.32,2.11,13.45,13.45,0,0,0-.93,1.05c-.25.39-.55.76-.77,1.17a14.36,14.36,0,0,0-1.14,2.54c-.13.37-.3,1-.3,1a18.29,18.29,0,0,0-.65-4.49,5.61,5.61,0,0,0-1-1.93,4,4,0,0,0-1.72-1.19,4.32,4.32,0,0,0-.51-.11Zm-23,18.69a2.75,2.75,0,0,0,2.49-.61l1.83-1.62a3,3,0,0,0,.71,1.66,2.15,2.15,0,0,0,1.48.85.91.91,0,0,0,1-.76c.11-1-1-1-1.35-1.49a2,2,0,0,1-.4-.64,1.72,1.72,0,0,1-.06-.82l1.36-1.2a2.63,2.63,0,0,1,1.13.09,3.37,3.37,0,0,1,1.39.94,5,5,0,0,1,.93,1.66,18.87,18.87,0,0,1,.79,4.3c0,.46.12,3.07.14,3.67a13.61,13.61,0,0,0,1.77,6.35,20.14,20.14,0,0,0,1.51,2.24,12.19,12.19,0,0,0-2.61-1.35,14.34,14.34,0,0,0-4.65-.89,14.64,14.64,0,0,0-8.15,2.28,12.94,12.94,0,0,0,2-2.94,12.05,12.05,0,0,0,1.08-3.42,10.48,10.48,0,0,0-.1-3.57A8.81,8.81,0,0,0,55,40a7.86,7.86,0,0,0-1.66-1.71Zm53.93,31.42L82.73,80.13a2.75,2.75,0,0,0-1.66,2l-5.93,26.66a2.75,2.75,0,0,1-4.8,1.17L54.5,91a26.43,26.43,0,0,1,8-2.07A20,20,0,0,1,65,88.82a12.32,12.32,0,0,1,2.51.24,12.65,12.65,0,0,0-2.49-.5,21,21,0,0,0-2.53-.13,27,27,0,0,0-5,.5c-1.12.22.35-1.88,2.28-2.73a19,19,0,0,1,4.31-1.38A12.7,12.7,0,0,1,68,84.68,5.63,5.63,0,0,1,71,86.06a9.24,9.24,0,0,1,1.48,1.77c.65,1,2.27,2.54,4,1.17s.4-3.29-.93-4.06a15,15,0,0,0-2.84-1.11,26.41,26.41,0,0,0-4.5-.94,12.73,12.73,0,0,0-4.45.35,18.24,18.24,0,0,0-4.55,1.88,21.08,21.08,0,0,0-5.38,4.45l-.26.38L52.79,89a2.73,2.73,0,0,0-1.33-.85A51.42,51.42,0,0,1,59.09,83c1.74-1,11.3-6.52,14-8.23a22.78,22.78,0,0,1,4.71-2.4A6.08,6.08,0,0,1,80.11,72a4.07,4.07,0,0,1,1.93.65,3,3,0,0,1,1.17,1.61A1.58,1.58,0,0,1,83,75.71a2.07,2.07,0,0,1-1,.7,2.37,2.37,0,0,1-.9.09c-.75,0-1.53-1-2.42-.2a1.09,1.09,0,0,0,0,1.48,2.6,2.6,0,0,0,1.9.8,3.84,3.84,0,0,0,3.36-1.71,3.15,3.15,0,0,0,.51-1.19,3,3,0,0,0-.07-1.4,4.49,4.49,0,0,0-1.75-2.38,4.85,4.85,0,0,0-2.4-.78,6.78,6.78,0,0,0-2.6.43,22.11,22.11,0,0,0-4.79,2.66c-2.25,1.55-2.94,1.5-1.47-.65a21.38,21.38,0,0,1-5.89,5.07C63.21,80,60.9,81,58.65,82.15c-.89.43-1.76.88-2.62,1.34a44.57,44.57,0,0,0,8.28-7,21,21,0,0,0,4.08-6.36l.17-.43.12-.44.24-.93a3.68,3.68,0,0,0,.09-.69,9.59,9.59,0,0,0,.08-1,9.82,9.82,0,0,0-.57-3.32,8.68,8.68,0,0,0-1.8-3A6.5,6.5,0,0,0,64,58.55a7.24,7.24,0,0,0-5,.29,4.38,4.38,0,0,0-2.3,1.9,1.71,1.71,0,0,0,.51,2.13c1.39.95,2.12-.73,2.75-1.25a4.92,4.92,0,0,1,3.07-1.27,3.85,3.85,0,0,1,2.33.73,5.49,5.49,0,0,1,1.89,2.61,8.72,8.72,0,0,1,0,6,20.87,20.87,0,0,1-3.66,6.18,48.38,48.38,0,0,1-10.4,9.18q-.76.46-1.48.95l-.32.2.11-.06-.65.45a10.26,10.26,0,0,1-5,1.83h0a19.57,19.57,0,0,1,1.52-5A17.19,17.19,0,0,1,49.61,80a11.51,11.51,0,0,1,2.57-2.38,5.1,5.1,0,0,1,2.91-.87,8.37,8.37,0,0,1,2.06.34c1,.26,3.06.39,3.43-1.57s-1.68-2.49-3-2.23a13.58,13.58,0,0,0-2.6.92,23.94,23.94,0,0,0-3.64,2,11.53,11.53,0,0,0-2.84,2.88,16,16,0,0,0-1.69,3.18,15.87,15.87,0,0,0,.15-4,11.24,11.24,0,0,0-1-3.8A23.33,23.33,0,0,0,43.74,71,13.22,13.22,0,0,0,42,69c-1-.87-3-1.37-3.65.44s1.18,2.71,2.16,3a8.15,8.15,0,0,1,1.91.7,5,5,0,0,1,2.06,2.13,11.19,11.19,0,0,1,1,3.24,16.72,16.72,0,0,1,.15,4,18.43,18.43,0,0,1-.74,3.86A23.11,23.11,0,0,0,43,81.15,16.77,16.77,0,0,0,37.92,75a15.84,15.84,0,0,1,4.23,6.5,20.55,20.55,0,0,1,1.26,7.11l-.06.06L23.23,90.61a2.75,2.75,0,0,1-2.6-4.2l4-6.47a5.06,5.06,0,0,0,.88,2,5,5,0,0,0,1.93,1.57,4.73,4.73,0,0,0,2.24.43,4,4,0,0,0,2.07-.72A4.08,4.08,0,0,0,33,81.76a2.57,2.57,0,0,0,0-2.59A1.69,1.69,0,0,0,30,80.45,1.29,1.29,0,0,1,30,81a1,1,0,0,1-.45.68A2.13,2.13,0,0,1,26.72,81,4.25,4.25,0,0,1,26,77.87l2.12-3.38.08-.09a7.45,7.45,0,0,1,4.93-1.18A10,10,0,0,1,37.92,75a10.06,10.06,0,0,0-4.73-2.35,9,9,0,0,0-2.68-.1,7.9,7.9,0,0,0-1.43.33l6-9.65a2.75,2.75,0,0,0,.19-2.56L24.44,35.64a2.75,2.75,0,0,1,3.19-3.77l19.71,4.92a6.38,6.38,0,0,0-1.17.33,6.63,6.63,0,0,0-2.71,1.94,6.33,6.33,0,0,0-1.35,2.74,5.29,5.29,0,0,0,.19,2.93,5.47,5.47,0,0,0,1.42,2.11,3.44,3.44,0,0,0,3.33,1,2.26,2.26,0,0,0-.56-4.44,1.73,1.73,0,0,1-.73-.19,1.4,1.4,0,0,1-.72-.82,2.85,2.85,0,0,1,1.85-3.42,5.75,5.75,0,0,1,4.69.29,6.85,6.85,0,0,1,3.49,4.34,10.12,10.12,0,0,1-.35,6.38,13,13,0,0,1-2.42,4,14.27,14.27,0,0,0-4.36,5.19,17.48,17.48,0,0,0-.18-2.87,8.35,8.35,0,0,0-1.06-3.07A6.7,6.7,0,0,0,44.46,51a5.94,5.94,0,0,0-1.76-.55,9.54,9.54,0,0,1-2.78-.72q-.41-.2-.8-.41A16,16,0,0,1,36,47.16a10.68,10.68,0,0,1-2-2.53,4.74,4.74,0,0,1-.62-2.76A7.78,7.78,0,0,1,33.81,40c.31-.92.56-2.81-1.23-3.28s-2.42,1.39-2.27,2.68A12.61,12.61,0,0,0,31,41.85a22.23,22.23,0,0,0,1.64,3.5,10.72,10.72,0,0,0,2.48,2.82,15.35,15.35,0,0,0,3.56,2.12c.45.2.91.37,1.38.53a3.37,3.37,0,0,0-.75.47,3.88,3.88,0,0,0-1,1.25,4.73,4.73,0,0,0,.12,4.64,3.2,3.2,0,0,0,2,1.59A1.35,1.35,0,0,0,42,57.88c.4-1.46-1.19-1.7-1.63-2.5a2.92,2.92,0,0,1-.44-1,2.55,2.55,0,0,1,.17-1.5,1.94,1.94,0,0,1,1.41-1.09,3.7,3.7,0,0,1,2.43.32,5,5,0,0,1,1.83,1.71,7.49,7.49,0,0,1,1,2.65c.35,1.9-.41,6.32.23,8.68a6,6,0,0,0,1.88,3.42A1.63,1.63,0,0,0,51,68.39c.91-1.23-.25-2.66-.7-3.54a6.36,6.36,0,0,1-.58-1.73,6.6,6.6,0,0,1,0-2.54A8.32,8.32,0,0,1,51,57.45a10.27,10.27,0,0,1,3.06-3,13.73,13.73,0,0,1,7.43-2.25,12,12,0,0,1,8.17,2.95,13.8,13.8,0,0,1,3.91,8.67,15.71,15.71,0,0,1-.25,5,13.29,13.29,0,0,1-2.06,4.68,13.33,13.33,0,0,0,2.33-4.61,15.94,15.94,0,0,0,.52-5.16h0A1.68,1.68,0,0,1,75.61,62a13.69,13.69,0,0,1,5.87.54,10.21,10.21,0,0,1,3.73,2,8.28,8.28,0,0,1,2,2.67,6.57,6.57,0,0,1,.69,2.43,6.32,6.32,0,0,1-.09,1.81c-.2,1-.92,2.65.27,3.58a1.62,1.62,0,0,0,2.12-.44A33.88,33.88,0,0,1,92.54,72a10.68,10.68,0,0,1,2.74-1.76,4.74,4.74,0,0,1,2.81-.32,7.79,7.79,0,0,1,1.83.65c.88.41,2.73.86,3.39-.88s-1.13-2.55-2.42-2.54a12.6,12.6,0,0,0-2.53.42,22.23,22.23,0,0,0-3.66,1.26A10.71,10.71,0,0,0,91.63,71c-.18.18-.35.37-.52.55,0-.23,0-.44,0-.68,0-2.43-1.93-6.47-2.09-8.38a7.45,7.45,0,0,1,.24-2.81,5,5,0,0,1,1.3-2.12,3.68,3.68,0,0,1,2.24-1,1.93,1.93,0,0,1,1.65.67A2.53,2.53,0,0,1,95,58.65a2.91,2.91,0,0,1-.14,1.1c-.21.89-1.67,1.54-.9,2.83a1.34,1.34,0,0,0,1.76.43A3.18,3.18,0,0,0,97.22,61a4.47,4.47,0,0,0-.05-2.62L108.43,65A2.75,2.75,0,0,1,108.06,69.91Z" style="fill: #8ea984"/>
    </symbol>
    <symbol id="snowflake" viewBox="0 0 130 130">
        <title>snowflake</title>
        <path d="M102.09,46.46l14.49,4.17a2.08,2.08,0,0,0,1.15-4l-10.65-3.06L117,37.85a2.08,2.08,0,1,0-2.08-3.6L105,40l2.67-10.75a2.08,2.08,0,0,0-4-1L100,42.85h0l-4.83,2.79L97.84,34.9a2.08,2.08,0,0,0-4-1L90.18,48.53h0l-4.83,2.79L88,40.58a2.08,2.08,0,1,0-4-1L80.34,54.21h0l-12.47,7.2V47h0L78.73,36.54a2.08,2.08,0,1,0-2.88-3l-8,7.69V35.66h0L78.73,25.19a2.08,2.08,0,1,0-2.88-3l-8,7.69V24.3h0L78.73,13.83a2.08,2.08,0,1,0-2.88-3l-8,7.69V7.08a2.08,2.08,0,1,0-4.16,0V18.52l-8-7.69a2.08,2.08,0,1,0-2.88,3L63.71,24.29h0v5.58l-8-7.69a2.08,2.08,0,1,0-2.88,3L63.71,35.65h0v5.58l-8-7.69a2.08,2.08,0,1,0-2.88,3L63.71,47h0V62.3L49.78,54.06h0L46.3,39.38a2.08,2.08,0,1,0-4,1l2.55,10.78L40,48.28h0L36.53,33.59a2.08,2.08,0,0,0-4,1L35,45.33l-4.8-2.84h0L26.75,27.81a2.08,2.08,0,1,0-4,1l2.55,10.78L17,34.67a2.08,2.08,0,0,0-2.12,3.58l8.26,4.88-10.68,3a2.08,2.08,0,1,0,1.11,4l14.53-4h0l4.8,2.84-10.68,3a2.08,2.08,0,1,0,1.11,4l14.53-4h0l4.8,2.84L32,57.65a2.08,2.08,0,1,0,1.11,4l14.53-4h0l13.22,7.82-13.3,7.68h0L33.08,69a2.08,2.08,0,0,0-1.15,4L42.58,76l-4.83,2.79h0L23.25,74.65a2.08,2.08,0,0,0-1.15,4l10.65,3.06L27.91,84.5h0L13.41,80.33a2.08,2.08,0,0,0-1.15,4l10.65,3.06-8.31,4.8a2.08,2.08,0,1,0,2.08,3.6L25,91l-2.67,10.75a2.08,2.08,0,1,0,4,1L30,88.1l4.84-2.79L32.16,96.06a2.08,2.08,0,1,0,4,1l3.63-14.64,4.84-2.79L42,90.38a2.08,2.08,0,1,0,4,1l3.63-14.64,14.05-8.12V84.83h0L52.85,95.31a2.08,2.08,0,1,0,2.88,3l8-7.69v5.58h0L52.85,106.67a2.08,2.08,0,1,0,2.88,3l8-7.69v5.58h0L52.85,118a2.08,2.08,0,1,0,2.88,3l8-7.69v9.59a2.08,2.08,0,0,0,4.16,0v-9.59l8,7.69a2.08,2.08,0,1,0,2.88-3L67.88,107.56h0V102l8,7.69a2.08,2.08,0,1,0,2.88-3L67.88,96.2h0V90.61l8,7.69a2.08,2.08,0,1,0,2.88-3L67.88,84.85h0V69.59L80.22,76.9,83.7,91.58a2.08,2.08,0,1,0,4-1L85.19,79.84,90,82.69l3.48,14.68a2.08,2.08,0,0,0,4-1L95,85.62l4.81,2.84,3.48,14.68a2.08,2.08,0,1,0,4-1l-2.55-10.78,9.85,5.83a2.08,2.08,0,0,0,2.12-3.58l-9.85-5.83,10.68-3a2.08,2.08,0,0,0-1.11-4l-14.53,4h0L97.08,82l10.68-3a2.08,2.08,0,0,0-1.11-4l-14.53,4h0l-4.8-2.84,10.68-3a2.08,2.08,0,0,0-1.11-4l-14.53,4h0L69.12,65.5l13.3-7.68h0L96.92,62a2.08,2.08,0,0,0,1.15-4L87.42,54.93l4.83-2.79h0l14.49,4.17a2.08,2.08,0,0,0,1.15-4L97.25,49.25l4.83-2.79Z"/>
    </symbol>
    <symbol id="bow" viewBox="0 0 118 70">
        <title>bow</title>
        <path d="M58.73,67.39S98.8,47.67,105.16,23.18c5.34-20.55-21-28-30.53-14.95C57.14,32.08,58.73,67.39,58.73,67.39ZM72.89,22.7c6-8.23,22.66-3.54,19.29,9.44-4,15.47-29.34,27.93-29.34,27.93S61.84,37.77,72.89,22.7Z"/>
        <path d="M62.94,69.29S95.36,46,115.5,44.42c0,0-8.39,11.15-11.38,13,0,0,11.41,3.28,13.88,7.19C118,64.61,91.3,72.34,62.94,69.29Z"/>
        <path d="M43.37,8.23C33.82-4.8,7.5,2.63,12.84,23.18,19.2,47.67,59.27,67.39,59.27,67.39S60.86,32.08,43.37,8.23ZM55.15,60.07S29.84,47.61,25.82,32.14c-3.37-13,13.25-17.68,19.29-9.44C56.16,37.77,55.15,60.07,55.15,60.07Z"/>
        <path d="M55.06,69.29S22.64,46,2.5,44.42c0,0,8.39,11.15,11.38,13,0,0-11.41,3.28-13.88,7.19C0,64.61,26.7,72.34,55.06,69.29Z"/>
    </symbol>
    <symbol id="reindeer" viewBox="0 0 68 68">
        <title>reindeer</title>
        <path d="M57.43,55.78a5.67,5.67,0,0,0-1-2.16c-.12-.36-.29-.9-.53-1.7-.12-.4-.26-1.11-.4-1.8-.51-2.57-1-5-2.94-6.35a5.83,5.83,0,0,0-2.52-1,7.94,7.94,0,0,0-.48-2.3,5.4,5.4,0,0,0,.36-1.07,4.63,4.63,0,0,0,.3-.79,4,4,0,0,0-.09-3.54,4.05,4.05,0,0,0-3.57-2.16H46a5.69,5.69,0,0,0-4.43,1.9,71.53,71.53,0,0,0-7.75-2.39,6.61,6.61,0,0,1-3.62-2.14,11.62,11.62,0,0,1,0-1.57v-.39c0-.32,0-.61,0-.86a10.07,10.07,0,0,0,2-1.29l.17-.13a5.69,5.69,0,0,0,.94-.72,5.63,5.63,0,0,0,2.45.57,5.51,5.51,0,0,0,1.71-.27,5.93,5.93,0,0,0,4.12-6.53q0-.15-.06-.29A6.14,6.14,0,0,0,40.89,17c1.48-2.32,2.94-5.71,1.7-8.94a4,4,0,0,0-5.93-1.91,6.64,6.64,0,0,0-2.28-.09,4,4,0,0,0-3.82-4.34h-.19c-3.41,0-4.93,3.49-5.51,4.8-.17.38-.32.78-.48,1.18a6.09,6.09,0,0,0-4.95,9l.14.24a5.92,5.92,0,0,0,.58.78l-.39.22-.67,0c-.39,0-.84-.06-1.29-.06a5,5,0,0,0-4.11,1.77,4.56,4.56,0,0,0-.84,3.89,6.79,6.79,0,0,0,2.88,3.78q.65.5,1.25.86a11.18,11.18,0,0,0-.51,2.91h0L16.28,31a8.05,8.05,0,0,0-2.6-.5A5.07,5.07,0,0,0,8.59,35.3c0,.34-.07.61-.1.84a6.1,6.1,0,0,0,1,4.74,16.13,16.13,0,0,0,1.12,1.46l.31.38c.91,2.29,2.1,3.76,3.63,4.49a11.44,11.44,0,0,1,1.19.73l.56.37a4.16,4.16,0,0,0,3.77,2.44,4.45,4.45,0,0,0,3.36-1.58,5.35,5.35,0,0,0,.49-.65,23.77,23.77,0,0,0,5,1.38c1.75.3,3.11.4,4.2.49a10.59,10.59,0,0,1,1.79.22,2.73,2.73,0,0,1,.48.55,10.57,10.57,0,0,0,8.13,3.74A9.45,9.45,0,0,0,45,54.76l.13,0,1-.16c.13.39.27.86.38,1.3,0,.11,0,.2,0,.25a4,4,0,0,0,0,.76,6.49,6.49,0,0,0,2.91,5.18c.08.08.21.22.32.35a6,6,0,0,0,4.74,3.78,4.3,4.3,0,0,0,.53,0c.91,0,3.89-.35,4.43-4.77,0-.15,0-.3.06-.47A5.42,5.42,0,0,0,57.43,55.78Z" style="fill: #fff"/>
        <path d="M12.81,38.67a19.76,19.76,0,0,1,1.75,2.4c.26.7.91,2.17,1.71,2.55A24.07,24.07,0,0,1,18.61,45c.81.51,1.28,1,1.31,1.52s1.09-.16.9-1.63-.6-1.79-1.28-1.64a1.28,1.28,0,0,1-1.43-.93,2.94,2.94,0,0,0-1.23-1.5,10.92,10.92,0,0,1-2-2.64c-.23-.48.89-.43,1.56.26a9.84,9.84,0,0,0,3.43,2.18c1.36,1.77,4,4.33,9.72,5.3,5.32.91,6.82-.16,9,2.82a6.76,6.76,0,0,0,5.8,2c2.41-.4,4.23-.75,5.25,1.57a18.19,18.19,0,0,1,.87,2.71,5.37,5.37,0,0,1,.09,1.39l0,0a2.41,2.41,0,0,0,1.06,2.27,7.15,7.15,0,0,1,1.51,1.49c.28.33.54,1.87,1.89,2,.28,0,.42-.73.49-1.34a2.5,2.5,0,0,0,0-.25c.12-1.29-.18-1.37-1.23-2.19a2.22,2.22,0,0,1-.79-.9,1.93,1.93,0,0,0-.68-1.85s-.19-.45-.85-2.63c-.55-1.8-.88-5.39-1.8-6-1.2-.84-3.92.31-4.52-.89-.41-.83,1.45-3.26-.89-5.75,0,0,1.63-2.06,1-1.93-.27.06.71-.92.42-.85s.47-.71.25-.68-1.65-.25-2.09.84a2.36,2.36,0,0,1-.39.63,2.79,2.79,0,0,1-3,.55,52.47,52.47,0,0,0-8.25-2.65A10.59,10.59,0,0,1,27,32.63c-.89-1.17-.77-2.79-.74-4.37a12.94,12.94,0,0,1,.73-4.32c1.4.61,2.69-.86,3.36-1.26s.31-.35-.51-.86a2.15,2.15,0,0,0-.85-.28,28.31,28.31,0,0,0,4.11-2c.53-.32,1.69-1.18,2.54-1a2,2,0,0,1,1.27.82c.93,1.21-1.24,2.61-1.91,1.48-.78-.91.95-1.74,1.4-1.07A1,1,0,0,0,35,19.4a1.15,1.15,0,0,0-.66,1.54,1.65,1.65,0,0,0,2,.89,1.93,1.93,0,0,0,1.38-2.09A2.37,2.37,0,0,0,35.77,18a2.64,2.64,0,0,0-.62-.05c.4-.45.8-1,1.11-1.37,1.63-1.94,3.38-5,2.59-7a7.07,7.07,0,0,1-1.22,4A16.9,16.9,0,0,1,35.74,16c-.49.53-.95,1-1.33,1.4a2.2,2.2,0,0,0,.26-1.26.89.89,0,0,0-.89-.82,1.14,1.14,0,0,1,.34,1.36,5.49,5.49,0,0,1-.91,1.65c-.07-.49-.06-1.87-.16-2.09a1.77,1.77,0,0,1-.12-1,7.55,7.55,0,0,0,.3-1.29v0l.06-.22c.29-.84.28-2.63,1.47-3s2.44,1.08,1.67,2a.71.71,0,0,1-1.08.24.69.69,0,0,1-.1-.93.77.77,0,0,0-.1,1.22c.68,1,2.7-.34,2-1.94-.45-1.62-3.39-1.76-3.84.11a7.52,7.52,0,0,0-.24,1.1,11.9,11.9,0,0,0-.37,1.5c.08-.63,0-1.21,0-1.83s-.25-1.85-.57-2a17.59,17.59,0,0,1,0,3.18,6.89,6.89,0,0,1-.48,2.87,26.3,26.3,0,0,1-1.93,3,7.38,7.38,0,0,1-1,1.27c-.33.29-1,.5-1.27.75.92-1,3.45-3.26,2.27-4.56.29.82-.61,2-1.2,2.66l-.74.82s0,0,0-.06c0-.83.26-1.09-.39-.76h0c.59-1.21,1.39-2.64,1.93-2.86-.45-.14-1.68,1.31-2.58,3.11l-.26.1a13.08,13.08,0,0,0,1-2.46,5.39,5.39,0,0,1,.74-1.84,4.85,4.85,0,0,1,2.3-1.77,2.41,2.41,0,0,0-2,.52,3.63,3.63,0,0,0-.43.4c0-.37.09-.74.12-1.1s.16-.5.26-.76a6.14,6.14,0,0,1,1.38-1.85,2.13,2.13,0,0,0-1.47.82l-.06.09a12.23,12.23,0,0,1,1-4,4.72,4.72,0,0,1,1.08-2c-1.15,0-2.75,4.22-3.14,6.51-.08.47-.12,1-.16,1.44a1.58,1.58,0,0,0-.13-.25A3,3,0,0,0,25.86,12a2.09,2.09,0,0,0-2.4.2A2.12,2.12,0,0,0,23,14.83a1.73,1.73,0,0,0,2.56.54,1.31,1.31,0,0,0-.34-2.19.87.87,0,0,0-1.18.91.74.74,0,0,1,1.1-.56.88.88,0,0,1,.2,1.28,1.05,1.05,0,0,1-1.49,0,1.5,1.5,0,0,1,.69-2.48c1.66,0,2.43,2.24,2.09,5a9.16,9.16,0,0,1-1.72,3.25,4.38,4.38,0,0,0-.77,0c-1.34,0-1.68.65-3.09,1.26s-4.61-.66-4.26.82c.18.76,2.53,2.39,3.12,2.53a2.4,2.4,0,0,1,1.85,2.15c0,.61-1.26,1.44-1.26,4.44a5.21,5.21,0,0,1-1.59,3.86,5.23,5.23,0,0,0-.68-.09,11.16,11.16,0,0,1-3-.64c-.92-.29-2.5-1-2.67.82S12.16,37.7,12.81,38.67ZM30.57,19.57l.19-.72s.86-1.17,1-1.34.25-.23.3,0a3.25,3.25,0,0,1,.24.8,3.34,3.34,0,0,1-.13.78.94.94,0,0,1-.06.39c-.08.15-.21.11-.42.23a6.32,6.32,0,0,1-1.06.33C30.42,20,30.52,19.75,30.57,19.57Z"/>
    </symbol>
    <symbol id="angel" viewBox="0 0 68 68">
        <title>angel</title>
        <path d="M65.9,23.34a4.51,4.51,0,0,1-3.28,1.39,6.54,6.54,0,0,1-4-1.64l-.34-.24a2.56,2.56,0,0,0-.47-.12c1.23,4.15.86,8.26-1,11.15A7.66,7.66,0,0,1,51,37.48l-.46,0a10.68,10.68,0,0,1-4.32-1.08A85.39,85.39,0,0,1,39.51,55C34.8,64.57,31,66.56,29.16,66.9A6.86,6.86,0,0,1,28,67c-2.95,0-5.66-1.94-8-3.76L19.8,63a11.92,11.92,0,0,1-.94-.79,4.61,4.61,0,0,1-3.51,1.61c-.87,0-3.63-.31-5.12-4.12A4.94,4.94,0,0,1,7.33,58c-2.4-2.74-1.89-6-1.59-7.94,0-.22.07-.48.11-.72C2.16,46,.54,44.33.54,42c0-4.06,4.19-6.5,12.46-7.24a18.73,18.73,0,0,0,9-3.06A18,18,0,0,1,6.81,22.08l-5.06-11,7.37,4.07a13.35,13.35,0,0,1-1.39-4l-1-9.2,7.37,5.59c1,.77,3,1.08,5.3,1.43a41.83,41.83,0,0,1,6.74,1.44,15.37,15.37,0,0,1,2.27,1A5.45,5.45,0,0,1,28.72,10a4.46,4.46,0,0,1,.39-1.78h0A4.69,4.69,0,0,1,31.23,5a4.41,4.41,0,0,1,1.56-1.64,5.86,5.86,0,0,1,2.42-1.21,5.13,5.13,0,0,1,.71-.41,4.47,4.47,0,0,1,1.91-.42h.28A4.63,4.63,0,0,1,39.75,1a5.49,5.49,0,0,1,.58,0l.41.07a4.62,4.62,0,0,1,.54,0,5.12,5.12,0,0,1,1.8.33h0a4.82,4.82,0,0,1,1.07.13,5.09,5.09,0,0,1,2.15,1A5.23,5.23,0,0,1,49,4.5a5.36,5.36,0,0,1,.59,1,4.79,4.79,0,0,1,1.35,2.74,7.11,7.11,0,0,1,0,1.86A10.43,10.43,0,0,1,51,11.86l.07.09h.28l.49,0h.23a4.14,4.14,0,0,1,.87.09h.1a4.42,4.42,0,0,1,2.38.7h.21a5,5,0,0,0,2.23-.34,5.85,5.85,0,0,1,4.46-2.52,4.8,4.8,0,0,1,4.55,3.61,15.09,15.09,0,0,1,.56,4C67.52,19.63,67.39,21.8,65.9,23.34Z" style="fill: #fff"/>
        <path d="M13.35,38.73c12.15-1.09,16.32-9.49,16.32-9.49.31-.71,1.3-2,1-2.5-.63-1-3,1-7.59,1a14.11,14.11,0,0,1-12.6-7.31C13.51,22.11,20,21.79,20,21.79c-3.49-1-8-9.11-8.26-11.12,3.07,2.33,8,1.82,13.24,3.5a11.65,11.65,0,0,1,3.66,2c3,2.34,4.63,6,5.73,6.54a2.47,2.47,0,0,0,2.07,0c.53-.31.67-1-.09-2.12a1.13,1.13,0,0,1-.94-.48c-.6,0-.4-.49-.7-.65-.14-.07-.5-.34-.61-.41s-.34-.51-.42-.58c-.26-.2,0-.35-.23-.67s-.46-.42-.53-.66-.13-.24-.08-.55a1.21,1.21,0,0,0,0-.76l-.26-.63a1,1,0,0,1,.13-.64c.28-.56-.26-.28-.36-.79s.42-.53.48-.84-.29-.46-.39-.74a2.47,2.47,0,0,1,0-.48c0-.56.44-.76.34-1.31a.86.86,0,0,1,.17-.86c.17-.3.07-.35.13-.67.15-.9,1-.45,1.36-1.07.25-.43.07-1.15.89-1.14.12-.73,1.13-.65,1.65-.78s.3-.36.66-.53.82.25,1.16.16.54-.55,1.09-.48c.2,0,.35.19.52.22s.17,0,.39-.08a1.3,1.3,0,0,1,1.2.16c.19.12.19.21.44.21s.5-.18.84-.1c.64.15.78.56,1,1.06a1.11,1.11,0,0,1,1.47.39A1.25,1.25,0,0,1,45.92,8c.05.06.11.12.16.19.49,0,.79,0,.89.64A2.51,2.51,0,0,1,46.89,10a5.47,5.47,0,0,1,0,2.57,1.19,1.19,0,0,0,.14,1c.18.41.89.68,1.14,1.16s-.37.89-.46.93.15.31.44.57,0,.59-.09.7-.46,0-.14.36.15.66-.07.71-.53.19-.45.52a1.22,1.22,0,0,1-.65,1.26,6,6,0,0,1-2,.41,1.42,1.42,0,0,0-1,.8c-.17.4-.25,2.81,1,3.38a3.85,3.85,0,0,0,3.9-2c.21-.49.76-1.29.43-2-.15-.34.17-.29.75-.11.09-.19.17-.37.24-.52.61-1.43.15-1.87-.44-1.87-.24,0-.81,0-.79-.32s-.1-.83.16-.89a6.6,6.6,0,0,1,1.28-.12c.14-.63.8-.19.8-.19.26-.74.69-.05.69-.05.42-.69.79.16.79.16.69-.9,1.17.26,1.17.26C57,17,59.69,16.55,61,15s2.33-1.91,2.49,2.7-1.32,3-2.91,1.85-5.14-.9-5.14-.9c-1.21-.09-2.64.38-2.5,1.92.43-.14.7-.28.81,0s-.2.79-.12,1.51a7,7,0,0,0,.2,1.1c2,5.71-.09,10.16-3.1,10.38a8.9,8.9,0,0,1-5.16-2.14c-2.09-1.65-2.46,0-2.62,1s-1.27,9.21-7,20.89c-2.55,5.2-5.72,9.45-7.47,9.77-2,.36-5-2.13-6.2-3.1-2.86-2.22-5.67-7-5.72-3.34-.05,4.45-2,4-2.81,1.06-.67-2.35,1.41-4.89-.37-5.35s-1.29,5.1-3,3.12c-2.22-2.54.79-6.62-1.11-8.37-1.09-1-4.69-4.05-4.69-5C4.53,40.55,7.8,39.23,13.35,38.73Z"/>
    </symbol>
    <symbol id="tree" viewBox="0 0 68 68">
        <title>tree</title>
        <path d="M62.7,46a4.75,4.75,0,0,0-3.36-2.49,20.62,20.62,0,0,1-5.82-2,18,18,0,0,0,4.69-6,4.95,4.95,0,0,0-4.06-7.09,14.2,14.2,0,0,1-5.9-2,12.39,12.39,0,0,0,2.95-3.83,4.95,4.95,0,0,0-2.71-6.83A17.84,17.84,0,0,1,38.81,5,4.93,4.93,0,0,0,34,1.31H34a4.85,4.85,0,0,0-3.83,1.83,4.8,4.8,0,0,0-1,1.91A17.84,17.84,0,0,1,19.5,15.82a4.95,4.95,0,0,0-2.71,6.83,12.39,12.39,0,0,0,2.95,3.83,14.2,14.2,0,0,1-5.9,2,4.95,4.95,0,0,0-4.06,7.09,18,18,0,0,0,4.69,6,20.62,20.62,0,0,1-5.82,2,4.76,4.76,0,0,0-3.31,2.4,5.15,5.15,0,0,0-.3,4.2c.05.16.11.3.18.45,3.37,7.39,12.24,10,19.42,10a29.79,29.79,0,0,0,4.68-.36,18.65,18.65,0,0,0,.38,3.3,4,4,0,0,0,3.91,3.14h3l.35,0h3.24a4,4,0,0,0,3.86-5C51.42,61,59.47,57.8,62.8,50.49A5.14,5.14,0,0,0,62.7,46Z" style="fill: #fff"/>
        <path d="M58.61,47.46a25.13,25.13,0,0,1-12.43-6.28,15.17,15.17,0,0,0,8.42-7.33,1,1,0,0,0-.81-1.41,19.1,19.1,0,0,1-12.36-6.54,10.84,10.84,0,0,0,6.17-5A1,1,0,0,0,47,19.54c-5.62-2.19-10.38-7.75-12.12-13.49a.79.79,0,0,0-.19-.4,1,1,0,0,0-1.49,0,.79.79,0,0,0-.19.41c-1.73,5.74-6.5,11.3-12.12,13.49a1,1,0,0,0-.56,1.37,10.84,10.84,0,0,0,6.17,5A19.1,19.1,0,0,1,14.2,32.44a1,1,0,0,0-.81,1.41,15.17,15.17,0,0,0,8.42,7.33A25.12,25.12,0,0,1,9.39,47.46a.94.94,0,0,0-.57,1.33l0,.13c3.18,7,14.11,9,22,6.92l-.69.07.58-.06.22,0v0a13,13,0,0,0-.44-4.53,11.85,11.85,0,0,0-2.33-3.1c-1-.9-3.68-2.93-6.6-1.92A4,4,0,0,0,19.5,48a2.86,2.86,0,0,0-.39,2.29,2.4,2.4,0,0,0,1.21,1.55,1.19,1.19,0,0,0,1.58-.37A.59.59,0,0,0,22,51a.72.72,0,0,0-.14-.28.94.94,0,0,1,1.23-1.41,1.44,1.44,0,0,1,.62,1.31,2.28,2.28,0,0,1-.27,1,2.21,2.21,0,0,1-.86.87,2.64,2.64,0,0,1-1.23.34A2.77,2.77,0,0,1,20,52.53a3.07,3.07,0,0,1-1.56-2.11,3.3,3.3,0,0,1,0-1.44A3.68,3.68,0,0,1,19,47.64a4.38,4.38,0,0,1,1.09-1A5,5,0,0,1,21.5,46a6.87,6.87,0,0,1,2.74-.09,10.18,10.18,0,0,1,4.29,1.9,13.06,13.06,0,0,1,2.88,3c.12.18.23.35.34.53a10.69,10.69,0,0,1-1-3.39,9.25,9.25,0,0,1,0-2.49,6.45,6.45,0,0,1,.71-2.15,13.39,13.39,0,0,1,1.32-1.92,7.59,7.59,0,0,1,1.08-1.11c.62-.47,1.78-.7,2.08.36s-.76,1.52-1.33,1.64a4.68,4.68,0,0,0-1.12.34,2.85,2.85,0,0,0-1.24,1.16,6.44,6.44,0,0,0-.7,1.83,9.61,9.61,0,0,0-.2,2.28,11.57,11.57,0,0,0,1,4.37c.08-.31.18-.61.29-.92a18.15,18.15,0,0,1,1.43-3.1l0,.06.11-.18q.24-.42.51-.84a27.06,27.06,0,0,0,2.93-7.18,11.67,11.67,0,0,0,.3-4,4.88,4.88,0,0,0-1.49-3,3.07,3.07,0,0,0-1.6-.84,2.15,2.15,0,0,0-1.35.21,2.75,2.75,0,0,0-1.22,1.4c-.18.42-.13,1.44-1.07,1.31a1,1,0,0,1-.78-.94A2.45,2.45,0,0,1,31,32.64a4,4,0,0,1,2.42-1.37,3.63,3.63,0,0,1,1.77.19,4.86,4.86,0,0,1,1.65,1.05A5.5,5.5,0,0,1,38,34a3.5,3.5,0,0,1,.19.46c.05.16.12.31.16.48l.1.5.05.25,0,.26a11.76,11.76,0,0,1-.46,4.2,24.94,24.94,0,0,1-2.41,5.58c.32-.44.64-.89,1-1.32.85-1.11,1.51-2.1,2.32-3.3a9.2,9.2,0,0,0,1.76-7,8.79,8.79,0,0,0-1.12-2.59,7.72,7.72,0,0,0-4.11-3.38,6.69,6.69,0,0,0-4.83.55,7.68,7.68,0,0,0-3.17,3,5.74,5.74,0,0,0-.79,2.25,4.66,4.66,0,0,0,.15,1.89,3.69,3.69,0,0,0,.62,1.28,3.56,3.56,0,0,0,.72.72c.45.33,1.38.76,1.23,1.6a.91.91,0,0,1-1.06.61,3.37,3.37,0,0,1-1.79-1.25c-.91-1-1.62-3.43-2.27-4.29a4.19,4.19,0,0,0-1.15-1.09,2.8,2.8,0,0,0-1.34-.4,2.07,2.07,0,0,0-1.3.44,1.09,1.09,0,0,0-.44.9,1.42,1.42,0,0,0,.29.79,1.63,1.63,0,0,0,.47.41c.42.29,1.28,0,1.44.85a.75.75,0,0,1-.58.84,1.79,1.79,0,0,1-1.38-.31,2.65,2.65,0,0,1-1.21-2.3,2.17,2.17,0,0,1,.18-.87,2.08,2.08,0,0,1,.6-.76,3.1,3.1,0,0,1,1.93-.64,3.34,3.34,0,0,1,1.66.52,4.67,4.67,0,0,1,1.29,1.27,9.8,9.8,0,0,1,.8,1.39A8.42,8.42,0,0,1,30.31,28a8,8,0,0,1,2.55-.71,6.82,6.82,0,0,1,1.65,0,11.29,11.29,0,0,1-1.32-.75,7.62,7.62,0,0,1-2.47-2.75c-.16-.3-.85-1.59-1-1.81a10.55,10.55,0,0,0-1.46-2,2.82,2.82,0,0,0-.88-.6,1.88,1.88,0,0,0-.93-.13,1.39,1.39,0,0,0-.81.43.73.73,0,0,0-.2.64,1,1,0,0,0,.27.5,1.1,1.1,0,0,0,.36.22c.31.15.85-.12,1,.41a.51.51,0,0,1-.3.62,1.2,1.2,0,0,1-1-.06,1.78,1.78,0,0,1-1-1.4,1.46,1.46,0,0,1,0-.6,1.4,1.4,0,0,1,.32-.57,2.08,2.08,0,0,1,1.22-.63,2.25,2.25,0,0,1,1.16.17,3.14,3.14,0,0,1,1,.71A10.23,10.23,0,0,1,30,21.91s-.07-.37-.1-.58a8,8,0,0,1-.06-1.55c0-.26.06-.52.09-.78a7.52,7.52,0,0,1,.2-.76,4.51,4.51,0,0,1,1.64-2.13,5.83,5.83,0,0,1,.61-.36l.39-.18a6.93,6.93,0,0,0,1.11-.64,2.77,2.77,0,0,0,.73-.75,1.85,1.85,0,0,0,.28-.88,1.37,1.37,0,0,0-.28-.86.72.72,0,0,0-.59-.3.94.94,0,0,0-.53.18.63.63,0,0,0-.27.31c-.14.31,0,.84-.57.94a.5.5,0,0,1-.55-.39,1.18,1.18,0,0,1,.22-.91,1.75,1.75,0,0,1,1.53-.78,1.43,1.43,0,0,1,.57.13,1.37,1.37,0,0,1,.5.4,2,2,0,0,1,.41,1.28A2.2,2.2,0,0,1,35,14.4a3,3,0,0,1-.79.8,6,6,0,0,1,.66-.05,4.18,4.18,0,0,1,.71,0,4.34,4.34,0,0,1,.67.16,5.56,5.56,0,0,1,1.2.53,5.2,5.2,0,0,1,2.09,2.3,4.38,4.38,0,0,1,.29,2.65,3.46,3.46,0,0,1-2.86,2.79,2.41,2.41,0,0,1-2.21-.49,1,1,0,0,1,0-1.32c.42-.45,1.44-.28,1.63-.26a2.57,2.57,0,0,0,.7,0,1.76,1.76,0,0,0,.87-.34,2.09,2.09,0,0,0,.7-1.14,2.83,2.83,0,0,0-.15-1.78A3.65,3.65,0,0,0,37,16.65a4.81,4.81,0,0,0-1-.46A3.19,3.19,0,0,0,34.84,16a4.88,4.88,0,0,0-2.35.6,3.73,3.73,0,0,0-1.68,1.88,6.24,6.24,0,0,0-.31,2.76,7,7,0,0,0,.88,2.8,7.22,7.22,0,0,0,2,2.29,12.07,12.07,0,0,0,2.51,1.39,6.34,6.34,0,0,1,.58.26l.25.14a9.49,9.49,0,0,1,3.37,3.3,8.38,8.38,0,0,1,1.09,5.79c-.07.34-.2,1.06.54-.28a12.37,12.37,0,0,1,1.74-2.52,3.8,3.8,0,0,1,1.2-.86,2.71,2.71,0,0,1,1.4-.21,2.51,2.51,0,0,1,1.47.76,1.69,1.69,0,0,1,.38.68,1.76,1.76,0,0,1,0,.72,2.15,2.15,0,0,1-1.26,1.69,1.45,1.45,0,0,1-1.15.07.61.61,0,0,1-.36-.75c.23-.65.89-.32,1.26-.5a1.33,1.33,0,0,0,.43-.27,1.16,1.16,0,0,0,.33-.6.88.88,0,0,0-.24-.78,1.68,1.68,0,0,0-1-.52,2.28,2.28,0,0,0-1.13.15,3.4,3.4,0,0,0-1.06.73A12.75,12.75,0,0,0,42,37.12c-.95,1.53-4.37,6.68-5,7.61a23.4,23.4,0,0,0-3.42,6.88,11.86,11.86,0,0,0-.38,2.1,11.86,11.86,0,0,1,.92-1.82,15,15,0,0,1,3.56-3.78,14.49,14.49,0,0,1,2.33-1.5,9,9,0,0,1,3.69-1.18,6.31,6.31,0,0,1,2.72.42,5.17,5.17,0,0,1,1.59,1,4.51,4.51,0,0,1,1.08,1.54,3.56,3.56,0,0,1,.26,1.86A3.91,3.91,0,0,1,48.72,52,3.17,3.17,0,0,1,47.33,53a4,4,0,0,1-4.64-1.43,3.14,3.14,0,0,1-.42-1.39A3,3,0,0,1,42.41,49a1.55,1.55,0,0,1,1.06-1.11,1.12,1.12,0,0,1,1.16.62,1.66,1.66,0,0,1-.35,1.52,1.31,1.31,0,0,0-.21,1.12,1.55,1.55,0,0,0,.58.74,2.23,2.23,0,0,0,1.16.4,2.57,2.57,0,0,0,2.27-.89,3.23,3.23,0,0,0,.61-1.3,2.93,2.93,0,0,0-.11-1.51,4,4,0,0,0-.85-1.41,5.17,5.17,0,0,0-1.37-1.05c-1.88-1-4.28-.2-4.91.08a7.93,7.93,0,0,0-1.18.64,14.38,14.38,0,0,0-6.37,8.46,16.63,16.63,0,0,0-.26,7.34H37v0h3.24a17.8,17.8,0,0,1-1.35-4.07.74.74,0,0,1,.76-.87c7.24.36,16.39-2,19.54-8.92A1,1,0,0,0,58.61,47.46Z"/>
    </symbol>
</svg>