<svg xmlns="http://www.w3.org/2000/svg" style="width:0;height:0;visibility:hidden;">

    <symbol id="menu" viewBox="0 0 24 24">
        <title>menu</title>
        <path d="M3 5h18q0.414 0 0.707 0.293t0.293 0.707-0.293 0.707-0.707 0.293h-18q-0.414 0-0.707-0.293t-0.293-0.707 0.293-0.707 0.707-0.293zM3 17h18q0.414 0 0.707 0.293t0.293 0.707-0.293 0.707-0.707 0.293h-18q-0.414 0-0.707-0.293t-0.293-0.707 0.293-0.707 0.707-0.293zM3 11h18q0.414 0 0.707 0.293t0.293 0.707-0.293 0.707-0.707 0.293h-18q-0.414 0-0.707-0.293t-0.293-0.707 0.293-0.707 0.707-0.293z"/>
    </symbol>

    <symbol id="close" viewBox="0 0 24 24">
        <title>close</title>
        <path d="M18.984 6.422l-5.578 5.578 5.578 5.578-1.406 1.406-5.578-5.578-5.578 5.578-1.406-1.406 5.578-5.578-5.578-5.578 1.406-1.406 5.578 5.578 5.578-5.578z"/>
    </symbol>

    <symbol id="facebook" viewBox="0 0 16 28">
        <title>facebook</title>
        <path d="M14.984 0.187v4.125h-2.453c-1.922 0-2.281 0.922-2.281 2.25v2.953h4.578l-0.609 4.625h-3.969v11.859h-4.781v-11.859h-3.984v-4.625h3.984v-3.406c0-3.953 2.422-6.109 5.953-6.109 1.687 0 3.141 0.125 3.563 0.187z"/>
    </symbol>

    <symbol id="instagram" viewBox="0 0 24 28">
        <title>instagram</title>
        <path d="M16 14c0-2.203-1.797-4-4-4s-4 1.797-4 4 1.797 4 4 4 4-1.797 4-4zM18.156 14c0 3.406-2.75 6.156-6.156 6.156s-6.156-2.75-6.156-6.156 2.75-6.156 6.156-6.156 6.156 2.75 6.156 6.156zM19.844 7.594c0 0.797-0.641 1.437-1.437 1.437s-1.437-0.641-1.437-1.437 0.641-1.437 1.437-1.437 1.437 0.641 1.437 1.437zM12 4.156c-1.75 0-5.5-0.141-7.078 0.484-0.547 0.219-0.953 0.484-1.375 0.906s-0.688 0.828-0.906 1.375c-0.625 1.578-0.484 5.328-0.484 7.078s-0.141 5.5 0.484 7.078c0.219 0.547 0.484 0.953 0.906 1.375s0.828 0.688 1.375 0.906c1.578 0.625 5.328 0.484 7.078 0.484s5.5 0.141 7.078-0.484c0.547-0.219 0.953-0.484 1.375-0.906s0.688-0.828 0.906-1.375c0.625-1.578 0.484-5.328 0.484-7.078s0.141-5.5-0.484-7.078c-0.219-0.547-0.484-0.953-0.906-1.375s-0.828-0.688-1.375-0.906c-1.578-0.625-5.328-0.484-7.078-0.484zM24 14c0 1.656 0.016 3.297-0.078 4.953-0.094 1.922-0.531 3.625-1.937 5.031s-3.109 1.844-5.031 1.937c-1.656 0.094-3.297 0.078-4.953 0.078s-3.297 0.016-4.953-0.078c-1.922-0.094-3.625-0.531-5.031-1.937s-1.844-3.109-1.937-5.031c-0.094-1.656-0.078-3.297-0.078-4.953s-0.016-3.297 0.078-4.953c0.094-1.922 0.531-3.625 1.937-5.031s3.109-1.844 5.031-1.937c1.656-0.094 3.297-0.078 4.953-0.078s3.297-0.016 4.953 0.078c1.922 0.094 3.625 0.531 5.031 1.937s1.844 3.109 1.937 5.031c0.094 1.656 0.078 3.297 0.078 4.953z"/>
    </symbol>

    <symbol id="twitter" viewBox="0 0 26 28">
        <title>twitter</title>
        <path d="M25.312 6.375c-0.688 1-1.547 1.891-2.531 2.609 0.016 0.219 0.016 0.438 0.016 0.656 0 6.672-5.078 14.359-14.359 14.359-2.859 0-5.516-0.828-7.75-2.266 0.406 0.047 0.797 0.063 1.219 0.063 2.359 0 4.531-0.797 6.266-2.156-2.219-0.047-4.078-1.5-4.719-3.5 0.313 0.047 0.625 0.078 0.953 0.078 0.453 0 0.906-0.063 1.328-0.172-2.312-0.469-4.047-2.5-4.047-4.953v-0.063c0.672 0.375 1.453 0.609 2.281 0.641-1.359-0.906-2.25-2.453-2.25-4.203 0-0.938 0.25-1.797 0.688-2.547 2.484 3.062 6.219 5.063 10.406 5.281-0.078-0.375-0.125-0.766-0.125-1.156 0-2.781 2.25-5.047 5.047-5.047 1.453 0 2.766 0.609 3.687 1.594 1.141-0.219 2.234-0.641 3.203-1.219-0.375 1.172-1.172 2.156-2.219 2.781 1.016-0.109 2-0.391 2.906-0.781z"/>
    </symbol>

    <symbol id="vimeo" viewBox="0 0 28 28">
        <title>vimeo</title>
        <path d="M26.703 8.094c-0.109 2.469-1.844 5.859-5.187 10.172-3.469 4.484-6.375 6.734-8.781 6.734-1.484 0-2.734-1.375-3.75-4.109-0.688-2.5-1.375-5.016-2.063-7.531-0.75-2.734-1.578-4.094-2.453-4.094-0.187 0-0.844 0.391-1.984 1.188l-1.203-1.531c1.25-1.109 2.484-2.234 3.719-3.313 1.656-1.469 2.922-2.203 3.766-2.281 1.984-0.187 3.187 1.156 3.656 4.047 0.484 3.125 0.844 5.078 1.031 5.828 0.578 2.594 1.188 3.891 1.875 3.891 0.531 0 1.328-0.828 2.406-2.516 1.062-1.687 1.625-2.969 1.703-3.844 0.141-1.453-0.422-2.172-1.703-2.172-0.609 0-1.234 0.141-1.891 0.406 1.25-4.094 3.641-6.078 7.172-5.969 2.609 0.078 3.844 1.781 3.687 5.094z"/>
    </symbol>

    <symbol id="soundcloud" viewBox="0 0 36 28">
        <title>soundcloud</title>
        <path d="M12.25 21.438l0.25-3.766-0.25-8.172c-0.016-0.203-0.172-0.375-0.375-0.375-0.187 0-0.359 0.172-0.359 0.375l-0.219 8.172 0.219 3.766c0.016 0.203 0.172 0.359 0.359 0.359 0.203 0 0.359-0.156 0.375-0.359zM16.875 20.984l0.172-3.297-0.187-9.156c0-0.156-0.078-0.297-0.203-0.375-0.078-0.047-0.156-0.078-0.25-0.078s-0.172 0.031-0.25 0.078c-0.125 0.078-0.203 0.219-0.203 0.375l-0.016 0.094-0.156 9.047s0 0.016 0.172 3.687v0.016c0 0.094 0.031 0.187 0.094 0.266 0.094 0.109 0.219 0.172 0.359 0.172 0.125 0 0.234-0.063 0.313-0.141 0.094-0.078 0.141-0.187 0.141-0.313zM0.547 15.672l0.313 2-0.313 1.969c-0.016 0.078-0.063 0.141-0.141 0.141s-0.125-0.063-0.141-0.141l-0.266-1.969 0.266-2c0.016-0.078 0.063-0.141 0.141-0.141s0.125 0.063 0.141 0.141zM1.891 14.438l0.406 3.234-0.406 3.172c-0.016 0.078-0.078 0.141-0.156 0.141s-0.141-0.063-0.141-0.156l-0.359-3.156 0.359-3.234c0-0.078 0.063-0.141 0.141-0.141s0.141 0.063 0.156 0.141zM6.266 21.516v0 0zM3.328 13.844l0.391 3.828-0.391 3.703c0 0.094-0.078 0.172-0.172 0.172s-0.172-0.078-0.187-0.172l-0.328-3.703 0.328-3.828c0.016-0.109 0.094-0.187 0.187-0.187s0.172 0.078 0.172 0.187zM4.797 13.734l0.359 3.938-0.359 3.813c-0.016 0.125-0.109 0.203-0.219 0.203s-0.203-0.078-0.203-0.203l-0.328-3.813 0.328-3.938c0-0.125 0.094-0.203 0.203-0.203s0.203 0.078 0.219 0.203zM6.266 14.016l0.328 3.656-0.328 3.844c-0.016 0.141-0.125 0.25-0.25 0.25s-0.234-0.109-0.234-0.25l-0.313-3.844 0.313-3.656c0-0.125 0.109-0.234 0.234-0.234s0.234 0.109 0.25 0.234zM12.25 21.438v0 0zM7.734 11.734l0.328 5.938-0.328 3.844c0 0.156-0.125 0.281-0.266 0.281-0.156 0-0.266-0.125-0.281-0.281l-0.281-3.844 0.281-5.938c0.016-0.156 0.125-0.281 0.281-0.281 0.141 0 0.266 0.125 0.266 0.281zM9.203 10.391l0.297 7.313-0.297 3.813c0 0.172-0.141 0.297-0.297 0.297-0.172 0-0.297-0.125-0.313-0.297l-0.25-3.813 0.25-7.313c0.016-0.172 0.141-0.297 0.313-0.297 0.156 0 0.297 0.125 0.297 0.297zM10.734 9.766l0.281 7.906-0.281 3.781c-0.016 0.187-0.156 0.328-0.344 0.328-0.172 0-0.313-0.141-0.328-0.328l-0.25-3.781 0.25-7.906c0-0.187 0.156-0.344 0.328-0.344 0.187 0 0.328 0.156 0.344 0.344zM16.859 21.359v0 0 0 0 0 0zM13.766 9.703l0.234 7.969-0.234 3.734c0 0.219-0.172 0.391-0.391 0.391s-0.375-0.172-0.391-0.391l-0.219-3.734 0.219-7.969c0-0.219 0.172-0.391 0.391-0.391s0.391 0.172 0.391 0.391zM15.313 10l0.219 7.688-0.219 3.687c0 0.234-0.187 0.422-0.422 0.422s-0.422-0.187-0.438-0.422l-0.187-3.687 0.187-7.688c0.016-0.25 0.203-0.438 0.438-0.438s0.406 0.187 0.422 0.438zM18.625 17.687l-0.219 3.609c0 0.266-0.219 0.484-0.484 0.484s-0.484-0.219-0.5-0.484l-0.094-1.781-0.094-1.828 0.187-9.938v-0.047c0.016-0.141 0.078-0.281 0.187-0.375 0.078-0.063 0.187-0.109 0.313-0.109 0.078 0 0.172 0.031 0.234 0.078 0.141 0.078 0.234 0.234 0.25 0.406zM36 17.391c0 2.438-1.984 4.406-4.422 4.406h-12.281c-0.266-0.031-0.484-0.234-0.484-0.516v-14.047c0-0.266 0.094-0.391 0.438-0.516 0.859-0.344 1.828-0.531 2.828-0.531 4.078 0 7.422 3.125 7.781 7.109 0.531-0.219 1.109-0.344 1.719-0.344 2.438 0 4.422 1.984 4.422 4.438z"/>
    </symbol>

    <symbol id="github" viewBox="0 0 24 28">
        <title>github</title>
        <path d="M12 2c6.625 0 12 5.375 12 12 0 5.297-3.437 9.797-8.203 11.391-0.609 0.109-0.828-0.266-0.828-0.578 0-0.391 0.016-1.687 0.016-3.297 0-1.125-0.375-1.844-0.812-2.219 2.672-0.297 5.484-1.313 5.484-5.922 0-1.313-0.469-2.375-1.234-3.219 0.125-0.313 0.531-1.531-0.125-3.187-1-0.313-3.297 1.234-3.297 1.234-0.953-0.266-1.984-0.406-3-0.406s-2.047 0.141-3 0.406c0 0-2.297-1.547-3.297-1.234-0.656 1.656-0.25 2.875-0.125 3.187-0.766 0.844-1.234 1.906-1.234 3.219 0 4.594 2.797 5.625 5.469 5.922-0.344 0.313-0.656 0.844-0.766 1.609-0.688 0.313-2.438 0.844-3.484-1-0.656-1.141-1.844-1.234-1.844-1.234-1.172-0.016-0.078 0.734-0.078 0.734 0.781 0.359 1.328 1.75 1.328 1.75 0.703 2.141 4.047 1.422 4.047 1.422 0 1 0.016 1.937 0.016 2.234 0 0.313-0.219 0.688-0.828 0.578-4.766-1.594-8.203-6.094-8.203-11.391 0-6.625 5.375-12 12-12zM4.547 19.234c0.031-0.063-0.016-0.141-0.109-0.187-0.094-0.031-0.172-0.016-0.203 0.031-0.031 0.063 0.016 0.141 0.109 0.187 0.078 0.047 0.172 0.031 0.203-0.031zM5.031 19.766c0.063-0.047 0.047-0.156-0.031-0.25-0.078-0.078-0.187-0.109-0.25-0.047-0.063 0.047-0.047 0.156 0.031 0.25 0.078 0.078 0.187 0.109 0.25 0.047zM5.5 20.469c0.078-0.063 0.078-0.187 0-0.297-0.063-0.109-0.187-0.156-0.266-0.094-0.078 0.047-0.078 0.172 0 0.281s0.203 0.156 0.266 0.109zM6.156 21.125c0.063-0.063 0.031-0.203-0.063-0.297-0.109-0.109-0.25-0.125-0.313-0.047-0.078 0.063-0.047 0.203 0.063 0.297 0.109 0.109 0.25 0.125 0.313 0.047zM7.047 21.516c0.031-0.094-0.063-0.203-0.203-0.25-0.125-0.031-0.266 0.016-0.297 0.109s0.063 0.203 0.203 0.234c0.125 0.047 0.266 0 0.297-0.094zM8.031 21.594c0-0.109-0.125-0.187-0.266-0.172-0.141 0-0.25 0.078-0.25 0.172 0 0.109 0.109 0.187 0.266 0.172 0.141 0 0.25-0.078 0.25-0.172zM8.937 21.438c-0.016-0.094-0.141-0.156-0.281-0.141-0.141 0.031-0.234 0.125-0.219 0.234 0.016 0.094 0.141 0.156 0.281 0.125s0.234-0.125 0.219-0.219z"/>
    </symbol>

    <symbol id="newsletter" viewBox="0 0 32 32">
        <title>newsletter</title>
        <path d="M28 11.094v12.406c0 1.375-1.125 2.5-2.5 2.5h-23c-1.375 0-2.5-1.125-2.5-2.5v-12.406c0.469 0.516 1 0.969 1.578 1.359 2.594 1.766 5.219 3.531 7.766 5.391 1.313 0.969 2.938 2.156 4.641 2.156h0.031c1.703 0 3.328-1.188 4.641-2.156 2.547-1.844 5.172-3.625 7.781-5.391 0.562-0.391 1.094-0.844 1.563-1.359zM28 6.5c0 1.75-1.297 3.328-2.672 4.281-2.438 1.687-4.891 3.375-7.313 5.078-1.016 0.703-2.734 2.141-4 2.141h-0.031c-1.266 0-2.984-1.437-4-2.141-2.422-1.703-4.875-3.391-7.297-5.078-1.109-0.75-2.688-2.516-2.688-3.938 0-1.531 0.828-2.844 2.5-2.844h23c1.359 0 2.5 1.125 2.5 2.5z"/>
    </symbol>

    <symbol id="asl" viewBox="0 0 32 32">
        <title>American Sign Language</title>
        <path d="M6.83,7.3a2,2,0,0,0,.38-.24,11.55,11.55,0,0,1,4.24-2.45A14.67,14.67,0,0,1,14,4.21a.61.61,0,0,1,.49.29.62.62,0,0,1-.08.56,1.93,1.93,0,0,1-.74.5c-1.06.36-2.14.64-3.19,1-.25.09-.43.36-.66.54L8.28,8.33,8,8.53l0,.09c.26-.11.52-.24.79-.33a15.26,15.26,0,0,1,2.55-.81,9.46,9.46,0,0,1,2.32.14,1.09,1.09,0,0,1,.51.29c.57.44,1.12.91,1.68,1.36.19.16.19.31,0,.51a.9.9,0,0,1-1.29.34,9.86,9.86,0,0,1-1.14-.84.73.73,0,0,0-.64-.17c-.51.08-1,.06-1.56.11a1.19,1.19,0,0,0-.56.17c-.72.51-1.43,1-2.12,1.58a.78.78,0,0,0-.22.51l.21-.09a4.07,4.07,0,0,1,1.88-.52c.21,0,.42,0,.62-.06a2.65,2.65,0,0,1,2.11.74c.51.39,1,.78,1.54,1.18a1.13,1.13,0,0,1,.45.94,5.41,5.41,0,0,1-.21,1.95c0,.07,0,.21,0,.24.4.31.14.64,0,.95-.22.64-.49,1.27-.74,1.91a1.84,1.84,0,0,1-1.29,1.21c-1.52.43-3,1-4.51,1.46a3.2,3.2,0,0,1-1.86.12,5.54,5.54,0,0,0-3.61.35c-.54.24-1.07.51-1.62.78a8.1,8.1,0,0,1-1.24-3A11.08,11.08,0,0,1,.1,16a.44.44,0,0,1,.21-.3A4,4,0,0,0,2.51,13,16.2,16.2,0,0,1,4.08,8.82,23.69,23.69,0,0,1,7,4.78,22,22,0,0,0,8.65,2.87c.26-.3.37-.29.59,0a.94.94,0,0,1-.12,1.17C8.37,5,7.65,6,6.92,6.9a2,2,0,0,0-.17.34A.14.14,0,0,1,6.83,7.3Zm5.34,10.52c.3,0,.57.08.72-.24A4.42,4.42,0,0,1,14.18,16c.16-.13.14-.24.06-.41-.26-.5-.49-1-.74-1.52a1,1,0,0,0-.32-.36c-.46-.29-.92-.57-1.4-.83a.61.61,0,0,0-.46,0c-.36.12-.71.31-1.06.46s-.66.22-1,.36c-.76.31-.95,1-1.17,1.71a1,1,0,0,0,.28,1.14c.44.46.84.94,1.23,1.44a.35.35,0,0,0,.45.12A4,4,0,0,1,12.18,17.83Z"/>
        <path d="M25.08,25.18c-.24.18-.5.35-.72.54a10.54,10.54,0,0,1-3.78,2.12,12.35,12.35,0,0,1-2.54.42.5.5,0,0,1-.44-.84,1.78,1.78,0,0,1,.79-.54c.9-.3,1.81-.53,2.71-.84a3.46,3.46,0,0,0,.9-.54c.58-.44,1.14-.9,1.7-1.36a.49.49,0,0,0,.19-.29c-.31.13-.61.28-.92.39a12.61,12.61,0,0,1-2.35.74,10.37,10.37,0,0,1-2.35-.14,1.18,1.18,0,0,1-.5-.28c-.49-.37-1-.76-1.45-1.14s-.42-.9.2-1.1a1.16,1.16,0,0,1,.8.07c.44.24.82.59,1.23.87a.75.75,0,0,0,.43.12c.54,0,1.08-.06,1.62-.12a1.65,1.65,0,0,0,.71-.24c.67-.47,1.34-1,2-1.49a1,1,0,0,0,.25-.51,5.63,5.63,0,0,1-2.82.66A2.25,2.25,0,0,1,19,21.16c-.65-.53-1.33-1-2-1.55a.82.82,0,0,1-.28-.57c0-.65.08-1.29.15-1.94,0-.22.14-.42-.09-.61a.42.42,0,0,1,0-.34c.07-.26.19-.51.28-.76.18-.48.36-1,.53-1.45A1.91,1.91,0,0,1,19,12.63c1.49-.43,3-.94,4.43-1.43a3.17,3.17,0,0,1,1.88-.12A5.49,5.49,0,0,0,29,10.64c.46-.21.9-.45,1.37-.69a6.47,6.47,0,0,1,1.08,2.24,11.05,11.05,0,0,1,.33,4.39c0,.33-.3.38-.51.46a2.91,2.91,0,0,0-1.5,1.57A19.84,19.84,0,0,0,29,20.91,11.82,11.82,0,0,1,27.64,24c-.48.72-.92,1.49-1.44,2.18s-.93,1.08-1.39,1.62l-1.49,1.73c-.27.3-.39.3-.61-.06a.92.92,0,0,1,.15-1.15c.73-.92,1.44-1.84,2.15-2.77a1.53,1.53,0,0,0,.15-.34Zm-7.27-8.42c.24.56.47,1.16.74,1.75a.79.79,0,0,0,.32.32c.46.28.93.54,1.38.84a.41.41,0,0,0,.46,0c.55-.24,1.11-.45,1.67-.67A1.87,1.87,0,0,0,23.62,18a9.27,9.27,0,0,0,.29-.92.9.9,0,0,0-.23-.92c-.47-.5-.9-1-1.35-1.55a.32.32,0,0,0-.3-.08,5.18,5.18,0,0,1-2.4.24.64.64,0,0,0-.49.22C18.68,15.57,18.24,16.18,17.81,16.75Z"/>
    </symbol>

    <symbol id="chevron-right" viewBox="0 0 20 20">
        <title>Continue</title>
        <path d="M9.163 4.516c0.418 0.408 4.502 4.695 4.502 4.695 0.223 0.219 0.335 0.504 0.335 0.789s-0.112 0.57-0.335 0.787c0 0-4.084 4.289-4.502 4.695-0.418 0.408-1.17 0.436-1.615 0-0.446-0.434-0.481-1.041 0-1.574l3.747-3.908-3.747-3.908c-0.481-0.533-0.446-1.141 0-1.576s1.197-0.409 1.615 0z"/>
    </symbol>

    <symbol id="play" viewBox="0 0 24 24">
        <title>play</title>
        <path d="M9.984 16.5l6-4.5-6-4.5v9zM12 2.016c5.531 0 9.984 4.453 9.984 9.984s-4.453 9.984-9.984 9.984-9.984-4.453-9.984-9.984 4.453-9.984 9.984-9.984z"/>
    </symbol>

    <symbol id="play-o" viewBox="0 0 32 32">
        <title>play</title>
        <path d="M16 0c-8.837 0-16 7.163-16 16s7.163 16 16 16 16-7.163 16-16-7.163-16-16-16zM16 29c-7.18 0-13-5.82-13-13s5.82-13 13-13 13 5.82 13 13-5.82 13-13 13zM12 9l12 7-12 7z"/>
    </symbol>

    <symbol id="group-study" viewBox="0 0 32 32">
        <path d="M16 6c0 0-4-4-16-4v24c12.125 0 16 4 16 4s3.875-4 16-4v-24c-12 0-16 4-16 4zM4 6c5.084 0.426 8.203 1.602 10 2.555v16.109c-1.797-0.949-4.916-2.125-10-2.555v-16.109zM28 22.109c-5.086 0.43-8.203 1.604-10 2.555v-16.109c1.797-0.953 4.914-2.129 10-2.555v16.109z"/>
    </symbol>

    <symbol id="audio" viewBox="0 0 32 32">
        <title>audio</title>
        <path d="M22.485 25.985c-0.384 0-0.768-0.146-1.061-0.439-0.586-0.586-0.586-1.535 0-2.121 4.094-4.094 4.094-10.755 0-14.849-0.586-0.586-0.586-1.536 0-2.121s1.536-0.586 2.121 0c2.55 2.55 3.954 5.94 3.954 9.546s-1.404 6.996-3.954 9.546c-0.293 0.293-0.677 0.439-1.061 0.439v0zM17.157 23.157c-0.384 0-0.768-0.146-1.061-0.439-0.586-0.586-0.586-1.535 0-2.121 2.534-2.534 2.534-6.658 0-9.192-0.586-0.586-0.586-1.536 0-2.121s1.535-0.586 2.121 0c3.704 3.704 3.704 9.731 0 13.435-0.293 0.293-0.677 0.439-1.061 0.439z"/>
        <path d="M13 30c-0.26 0-0.516-0.102-0.707-0.293l-7.707-7.707h-3.586c-0.552 0-1-0.448-1-1v-10c0-0.552 0.448-1 1-1h3.586l7.707-7.707c0.286-0.286 0.716-0.372 1.090-0.217s0.617 0.519 0.617 0.924v26c0 0.404-0.244 0.769-0.617 0.924-0.124 0.051-0.254 0.076-0.383 0.076z"/>
    </symbol>

    <symbol id="mail" viewBox="0 0 24 24">
        <title>email</title>
        <path d="M4 3h16q1.242 0 2.121 0.879t0.879 2.121v12q0 1.242-0.879 2.121t-2.121 0.879h-16q-1.242 0-2.121-0.879t-0.879-2.121v-12q0-1.242 0.879-2.121t2.121-0.879zM21 18v-10.922l-8.375 6.703q-0.266 0.219-0.625 0.219t-0.625-0.219l-8.375-6.703v10.922q0 0.414 0.293 0.707t0.707 0.293h16q0.414 0 0.707-0.293t0.293-0.707zM20 5h-16q-0.148 0-0.328 0.055l8.328 6.664 8.328-6.664q-0.18-0.055-0.328-0.055z"/>
    </symbol>

</svg>