<svg id="ListingMarker" xmlns="http://www.w3.org/2000/svg" viewBox="0 0 20 24">
  <title>map-marker-home</title>
  <g>
    <path d="M10,0A10.17,10.17,0,0,0,0,10.37a10.4,10.4,0,0,0,5.45,9.2l4,4.23a.65.65,0,0,0,.93,0l4-4.19A10.53,10.53,0,0,0,18.95,5.73,10,10,0,0,0,10,0Zm0,19.34a8.83,8.83,0,0,1-8.67-9,8.83,8.83,0,0,1,8.67-9,8.83,8.83,0,0,1,8.67,9A8.84,8.84,0,0,1,10,19.34Z" style="fill: #b3b3b3"/>
    <g>
      <path d="M10,23a.54.54,0,0,1-.38-.15l-4-4.09a9.89,9.89,0,1,1,8.88,0l-4.08,4.07A.54.54,0,0,1,10,23Z" style="fill: #fff"/>
      <path d="M10,.16a9.75,9.75,0,0,1,4.35,18.48l0,0,0,0-4,4a.42.42,0,0,1-.58,0l-4-4.09,0,0,0,0A9.75,9.75,0,0,1,10,.16H10m0-.25H10A10,10,0,0,0,5.44,18.82l4,4.09a.67.67,0,0,0,.93,0l4-4A10,10,0,0,0,10-.09Z" style="fill: #b3b3b3"/>
    </g>
    <circle cx="9.96" cy="9.92" r="8.68" style="fill: #4c48f5;isolation: isolate"/>
  </g>
  <polygon points="15.5 7.85 13.89 7.85 13.89 13.04 11.3 13.04 11.3 10.45 8.71 10.45 8.71 13.04 6.12 13.04 6.12 7.85 4.5 7.85 10.01 4.95 12.21 6.12 12.21 5.26 13.89 5.26 13.89 7 15.5 7.85" style="fill: #fff"/>
</svg>
